<svg width="916.30537109375px" height="159.2px" xmlns="http://www.w3.org/2000/svg" viewBox="-208.15268554687498 -4.599999999999994 916.30537109375 159.2" style="background: rgba(0, 0, 0, 0);" preserveAspectRatio="xMidYMid"><defs><filter id="editing-extrusion" x="-100%" y="-100%" width="300%" height="300%"><feFlood result="color1" flood-color="#1d3054"></feFlood><feConvolveMatrix order="8,8" divisor="1" kernelMatrix="1 0 0 0 0 0 0 0 0 1 0 0 0 0 0 0 0 0 1 0 0 0 0 0 0 0 0 1 0 0 0 0 0 0 0 0 1 0 0 0 0 0 0 0 0 1 0 0 0 0 0 0 0 0 1 0 0 0 0 0 0 0 0 1" in="SourceAlpha" result="extrude"></feConvolveMatrix><feComposite in="color1" in2="extrude" result="comp-extrude" operator="in"></feComposite><feOffset dx="4" dy="4" in="comp-extrude" result="offset-extrude"></feOffset><feMerge><feMergeNode in="offset-extrude"></feMergeNode><feMergeNode in="SourceGraphic"></feMergeNode></feMerge></filter></defs><g filter="url(#editing-extrusion)"><g transform="translate(-78.97536194324493, 108.00000190734863)"><path d="M35.90-58.70L35.90-58.70L35.90-58.70Q57.46-58.70 57.46-43.47L57.46-43.47L57.46-43.47Q57.46-35.11 52.10-30.10L52.10-30.10L52.10-30.10Q46.82-25.08 37.58-25.08L37.58-25.08L37.58-25.08Q33.26-25.08 29.92-27.54L29.92-27.54L29.92-27.54Q28.34-28.60 27.28-30.01L27.28-30.01L27.28-30.01Q33.70-30.01 37.09-33.92L37.09-33.92L37.09-33.92Q40.48-37.84 40.48-45.50L40.48-45.50L40.48-45.50Q40.48-53.15 32.91-53.15L32.91-53.15L30.80-53.15L30.80-53.15Q30.27-53.15 29.83-53.06L29.83-53.06L19.71 0L0.62 0L11.44-57.64L11.44-57.64Q20.86-58.52 26.31-58.61L26.31-58.61L26.31-58.61Q31.77-58.70 35.90-58.70ZM61.73-2.64L61.73-2.64L61.73-2.64Q59.66-4.93 58.74-8.54L58.74-8.54L58.74-8.54Q57.82-12.14 57.82-18.04L57.82-18.04L57.82-18.04Q57.82-23.94 59.84-29.30L59.84-29.30L59.84-29.30Q61.86-34.67 65.56-38.54L65.56-38.54L65.56-38.54Q73.13-46.64 85.62-46.64L85.62-46.64L85.62-46.64Q90.11-46.64 93.37-45.14L93.37-45.14L108.42-46.64L101.90-12.32L101.90-12.32Q101.64-11.26 101.64-9.33L101.64-9.33L101.64-9.33Q101.64-7.39 102.83-6.16L102.83-6.16L102.83-6.16Q104.02-4.93 105.78-4.75L105.78-4.75L105.78-4.75Q104.90-1.76 101.68 0L101.68 0L101.68 0Q98.47 1.76 94.86 1.76L94.86 1.76L94.86 1.76Q91.26 1.76 88.84 0.40L88.84 0.40L88.84 0.40Q86.42-0.97 85.71-3.26L85.71-3.26L85.71-3.26Q84.30-1.06 81.31 0.35L81.31 0.35L81.31 0.35Q78.32 1.76 74.32 1.76L74.32 1.76L74.32 1.76Q70.31 1.76 67.06 0.70L67.06 0.70L67.06 0.70Q63.80-0.35 61.73-2.64ZM80.30-38.37L80.30-38.37L80.30-38.37Q79.29-36.78 78.41-34.10L78.41-34.10L78.41-34.10Q77.53-31.42 76.08-24.24L76.08-24.24L76.08-24.24Q74.62-17.07 74.62-11.97L74.62-11.97L74.62-11.97Q74.62-6.86 75.42-5.37L75.42-5.37L75.42-5.37Q76.21-3.87 77.62-3.87L77.62-3.87L77.62-3.87Q80.43-3.87 82.50-6.56L82.50-6.56L82.50-6.56Q84.57-9.24 85.36-13.99L85.36-13.99L90.02-39.78L90.02-39.78Q88.18-41.36 86.02-41.36L86.02-41.36L86.02-41.36Q83.86-41.36 82.59-40.66L82.59-40.66L82.59-40.66Q81.31-39.95 80.30-38.37ZM140.71-24.73L140.71-24.73L140.71-24.73Q143.88-30.36 143.88-36.08L143.88-36.08L143.88-36.08Q143.88-39.86 141.15-39.86L141.15-39.86L141.15-39.86Q139.04-39.86 136.84-36.26L136.84-36.26L136.84-36.26Q134.55-32.65 133.85-27.98L133.85-27.98L129.27 0L111.06 1.76L120.03-44.88L134.55-46.64L132.97-37.75L132.97-37.75Q137.28-46.64 146.96-46.64L146.96-46.64L146.96-46.64Q152.06-46.64 154.84-44L154.84-44L154.84-44Q157.61-41.36 157.61-35.95L157.61-35.95L157.61-35.95Q157.61-30.54 154.04-27.10L154.04-27.10L154.04-27.10Q150.48-23.67 144.41-23.67L144.41-23.67L144.41-23.67Q141.77-23.67 140.71-24.73ZM181.72-41.71L181.72-41.71L181.72-41.71Q186.47-46.64 196.50-46.64L196.50-46.64L196.50-46.64Q202.05-46.64 205.08-43.69L205.08-43.69L205.08-43.69Q208.12-40.74 208.12-35.33L208.12-35.33L208.12-35.33Q208.12-29.92 205.08-26.09L205.08-26.09L205.08-26.09Q202.05-22.26 196.42-20.68L196.42-20.68L196.42-20.68Q196.86-18.92 197.47-17.07L197.47-17.07L198.70-13.55L198.70-13.55Q200.38-9.06 201.70-7.48L201.70-7.48L201.70-7.48Q203.02-5.90 204.78-5.37L204.78-5.37L204.78-5.37Q203.81-1.76 200.29 0.18L200.29 0.18L200.29 0.18Q197.47 1.76 193.60 1.76L193.60 1.76L193.60 1.76Q182.25 1.76 180.75-15.75L180.75-15.75L180.75-15.75Q180.49-18.22 180.49-20.68L180.49-20.68L180.49-20.68Q184.89-21.91 187.97-26.05L187.97-26.05L187.97-26.05Q191.05-30.18 191.05-35.02L191.05-35.02L191.05-35.02Q191.05-39.86 187.62-39.86L187.62-39.86L187.62-39.86Q185.15-39.86 183.22-37.14L183.22-37.14L183.22-37.14Q181.28-34.41 180.40-29.74L180.40-29.74L174.59 0L156.82 1.76L169.14-61.60L186.82-63.36L184.80-52.89L184.80-52.89Q183.48-45.50 181.72-41.71ZM247.81-14.87L247.81-14.87L247.81-14.87Q250.01-13.38 250.01-10.08L250.01-10.08L250.01-10.08Q250.01-6.78 248.34-4.66L248.34-4.66L248.34-4.66Q246.66-2.55 243.94-1.14L243.94-1.14L243.94-1.14Q238.30 1.76 232.23 1.76L232.23 1.76L232.23 1.76Q226.16 1.76 222.60 0.44L222.60 0.44L222.60 0.44Q219.03-0.88 216.66-3.34L216.66-3.34L216.66-3.34Q211.99-8.01 211.99-16.54L211.99-16.54L211.99-16.54Q211.99-29.83 219.21-37.93L219.21-37.93L219.21-37.93Q226.95-46.64 240.42-46.64L240.42-46.64L240.42-46.64Q248.78-46.64 252.91-43.12L252.91-43.12L252.91-43.12Q255.99-40.48 255.99-36.17L255.99-36.17L255.99-36.17Q255.99-20.68 229.24-20.68L229.24-20.68L229.24-20.68Q228.89-18.39 228.89-16.46L228.89-16.46L228.89-16.46Q228.89-12.41 230.69-10.87L230.69-10.87L230.69-10.87Q232.50-9.33 235.84-9.33L235.84-9.33L235.84-9.33Q239.18-9.33 242.75-10.87L242.75-10.87L242.75-10.87Q246.31-12.41 247.81-14.87ZM229.86-24.46L229.86-24.46L229.86-24.46Q236.10-24.46 239.71-28.34L239.71-28.34L239.71-28.34Q243.32-32.03 243.32-37.93L243.32-37.93L243.32-37.93Q243.32-39.95 242.57-41.05L242.57-41.05L242.57-41.05Q241.82-42.15 240.33-42.15L240.33-42.15L240.33-42.15Q238.83-42.15 237.56-41.58L237.56-41.58L237.56-41.58Q236.28-41.01 234.96-39.07L234.96-39.07L234.96-39.07Q231.70-34.67 229.86-24.46ZM286.53-24.73L286.53-24.73L286.53-24.73Q289.70-30.36 289.70-36.08L289.70-36.08L289.70-36.08Q289.70-39.86 286.97-39.86L286.97-39.86L286.97-39.86Q284.86-39.86 282.66-36.26L282.66-36.26L282.66-36.26Q280.37-32.65 279.66-27.98L279.66-27.98L275.09 0L256.87 1.76L265.85-44.88L280.37-46.64L278.78-37.75L278.78-37.75Q283.10-46.64 292.78-46.64L292.78-46.64L292.78-46.64Q297.88-46.64 300.65-44L300.65-44L300.65-44Q303.42-41.36 303.42-35.95L303.42-35.95L303.42-35.95Q303.42-30.54 299.86-27.10L299.86-27.10L299.86-27.10Q296.30-23.67 290.22-23.67L290.22-23.67L290.22-23.67Q287.58-23.67 286.53-24.73ZM357.28-40.66L357.28-40.66L357.28-40.66Q358.60-43.30 358.60-45.76L358.60-45.76L358.60-45.76Q358.60-48.22 358.34-49.59L358.34-49.59L358.34-49.59Q358.07-50.95 357.46-52.01L357.46-52.01L357.46-52.01Q356.14-54.30 353.50-54.30L353.50-54.30L353.50-54.30Q350.24-54.30 347.60-51.92L347.60-51.92L347.60-51.92Q344.78-49.46 344.78-45.58L344.78-45.58L344.78-45.58Q344.78-43.12 346.50-41.23L346.50-41.23L346.50-41.23Q348.22-39.34 350.86-37.58L350.86-37.58L350.86-37.58Q353.50-35.82 356.49-34.06L356.49-34.06L356.49-34.06Q359.48-32.30 362.12-30.18L362.12-30.18L362.12-30.18Q368.19-25.34 368.19-18.83L368.19-18.83L368.19-18.83Q368.19-14.43 365.86-10.69L365.86-10.69L365.86-10.69Q363.53-6.95 359.66-4.22L359.66-4.22L359.66-4.22Q351.21 1.76 340.03 1.76L340.03 1.76L340.03 1.76Q330.97 1.76 326.30-1.19L326.30-1.19L326.30-1.19Q321.64-4.14 321.64-8.62L321.64-8.62L321.64-8.62Q321.64-16.63 327.89-18.66L327.89-18.66L327.89-18.66Q329.65-19.27 332.33-19.27L332.33-19.27L332.33-19.27Q335.02-19.27 338.10-18.13L338.10-18.13L338.10-18.13Q336.69-14.52 336.69-11.26L336.69-11.26L336.69-11.26Q336.69-4.22 341.70-4.22L341.70-4.22L341.70-4.22Q344.96-4.22 347.64-6.60L347.64-6.60L347.64-6.60Q350.33-8.98 350.33-11.66L350.33-11.66L350.33-11.66Q350.33-14.34 348.61-16.28L348.61-16.28L348.61-16.28Q346.90-18.22 344.34-19.76L344.34-19.76L344.34-19.76Q341.79-21.30 338.84-22.79L338.84-22.79L338.84-22.79Q335.90-24.29 333.34-26.40L333.34-26.40L333.34-26.40Q327.36-31.24 327.36-38.98L327.36-38.98L327.36-38.98Q327.36-44 329.82-47.92L329.82-47.92L329.82-47.92Q332.29-51.83 336.25-54.47L336.25-54.47L336.25-54.47Q344.17-59.84 353.89-59.84L353.89-59.84L353.89-59.84Q363.62-59.84 368.32-56.94L368.32-56.94L368.32-56.94Q373.03-54.03 373.03-49.10L373.03-49.10L373.03-49.10Q373.03-44.79 369.69-42.06L369.69-42.06L369.69-42.06Q366.78-39.78 363.26-39.78L363.26-39.78L363.26-39.78Q359.74-39.78 357.28-40.66ZM397.58-41.71L397.58-41.71L397.58-41.71Q402.34-46.64 412.37-46.64L412.37-46.64L412.37-46.64Q417.91-46.64 420.95-43.69L420.95-43.69L420.95-43.69Q423.98-40.74 423.98-35.33L423.98-35.33L423.98-35.33Q423.98-29.92 420.95-26.09L420.95-26.09L420.95-26.09Q417.91-22.26 412.28-20.68L412.28-20.68L412.28-20.68Q412.72-18.92 413.34-17.07L413.34-17.07L414.57-13.55L414.57-13.55Q416.24-9.06 417.56-7.48L417.56-7.48L417.56-7.48Q418.88-5.90 420.64-5.37L420.64-5.37L420.64-5.37Q419.67-1.76 416.15 0.18L416.15 0.18L416.15 0.18Q413.34 1.76 409.46 1.76L409.46 1.76L409.46 1.76Q398.11 1.76 396.62-15.75L396.62-15.75L396.62-15.75Q396.35-18.22 396.35-20.68L396.35-20.68L396.35-20.68Q400.75-21.91 403.83-26.05L403.83-26.05L403.83-26.05Q406.91-30.18 406.91-35.02L406.91-35.02L406.91-35.02Q406.91-39.86 403.48-39.86L403.48-39.86L403.48-39.86Q401.02-39.86 399.08-37.14L399.08-37.14L399.08-37.14Q397.14-34.41 396.26-29.74L396.26-29.74L390.46 0L372.68 1.76L385.00-61.60L402.69-63.36L400.66-52.89L400.66-52.89Q399.34-45.50 397.58-41.71ZM449.15-4.84L449.15-4.84L449.15-4.84Q446.42 1.76 437.71 1.76L437.71 1.76L437.71 1.76Q433.22 1.76 430.41-1.32L430.41-1.32L430.41-1.32Q428.03-4.05 428.03-6.78L428.03-6.78L428.03-6.78Q428.03-13.90 431.29-27.81L431.29-27.81L434.54-44.88L452.41-46.64L447.04-18.83L447.04-18.83Q445.54-12.32 445.54-10.03L445.54-10.03L445.54-10.03Q445.54-5.02 449.15-4.84ZM436.13-57.11L436.13-57.11L436.13-57.11Q436.13-60.54 438.99-62.39L438.99-62.39L438.99-62.39Q441.85-64.24 445.98-64.24L445.98-64.24L445.98-64.24Q450.12-64.24 452.63-62.39L452.63-62.39L452.63-62.39Q455.14-60.54 455.14-57.11L455.14-57.11L455.14-57.11Q455.14-53.68 452.36-51.92L452.36-51.92L452.36-51.92Q449.59-50.16 445.46-50.16L445.46-50.16L445.46-50.16Q441.32-50.16 438.72-51.92L438.72-51.92L438.72-51.92Q436.13-53.68 436.13-57.11ZM493.86 1.76L493.86 1.76L493.86 1.76Q483.21 1.76 483.21-6.51L483.21-6.51L483.21-6.51Q483.30-8.80 484.00-12.67L484.00-12.67L485.58-20.77L485.58-20.77Q487.96-32.21 487.96-34.76L487.96-34.76L487.96-34.76Q487.96-39.86 484.97-39.86L484.97-39.86L484.97-39.86Q479.95-39.86 477.31-26.75L477.31-26.75L472.12 0L454.43 1.76L463.58-44.97L478.02-46.64L476.61-38.02L476.61-38.02Q480.74-46.64 493.42-46.64L493.42-46.64L493.42-46.64Q499.58-46.64 502.17-44.04L502.17-44.04L502.17-44.04Q504.77-41.45 504.77-35.64L504.77-35.64L504.77-35.64Q504.77-30.18 501.95-17.42L501.95-17.42L501.95-17.42Q500.63-11.70 500.63-9.55L500.63-9.55L500.63-9.55Q500.63-7.39 501.82-6.16L501.82-6.16L501.82-6.16Q503.01-4.93 504.77-4.75L504.77-4.75L504.77-4.75Q503.89-1.76 500.85 0L500.85 0L500.85 0Q497.82 1.76 493.86 1.76ZM549.03 1.76L549.03 1.76L549.03 1.76Q538.38 1.76 538.38-6.51L538.38-6.51L538.38-6.51Q538.47-8.80 539.18-12.67L539.18-12.67L540.76-20.77L540.76-20.77Q543.14-32.21 543.14-34.76L543.14-34.76L543.14-34.76Q543.14-39.86 540.14-39.86L540.14-39.86L540.14-39.86Q535.13-39.86 532.49-26.75L532.49-26.75L527.30 0L509.61 1.76L518.76-44.97L533.19-46.64L531.78-38.02L531.78-38.02Q535.92-46.64 548.59-46.64L548.59-46.64L548.59-46.64Q554.75-46.64 557.35-44.04L557.35-44.04L557.35-44.04Q559.94-41.45 559.94-35.64L559.94-35.64L559.94-35.64Q559.94-30.18 557.13-17.42L557.13-17.42L557.13-17.42Q555.81-11.70 555.81-9.55L555.81-9.55L555.81-9.55Q555.81-7.39 557.00-6.16L557.00-6.16L557.00-6.16Q558.18-4.93 559.94-4.75L559.94-4.75L559.94-4.75Q559.06-1.76 556.03 0L556.03 0L556.03 0Q552.99 1.76 549.03 1.76ZM602.62-14.87L602.62-14.87L602.62-14.87Q604.82-13.38 604.82-10.08L604.82-10.08L604.82-10.08Q604.82-6.78 603.15-4.66L603.15-4.66L603.15-4.66Q601.48-2.55 598.75-1.14L598.75-1.14L598.75-1.14Q593.12 1.76 587.05 1.76L587.05 1.76L587.05 1.76Q580.98 1.76 577.41 0.44L577.41 0.44L577.41 0.44Q573.85-0.88 571.47-3.34L571.47-3.34L571.47-3.34Q566.81-8.01 566.81-16.54L566.81-16.54L566.81-16.54Q566.81-29.83 574.02-37.93L574.02-37.93L574.02-37.93Q581.77-46.64 595.23-46.64L595.23-46.64L595.23-46.64Q603.59-46.64 607.73-43.12L607.73-43.12L607.73-43.12Q610.81-40.48 610.81-36.17L610.81-36.17L610.81-36.17Q610.81-20.68 584.06-20.68L584.06-20.68L584.06-20.68Q583.70-18.39 583.70-16.46L583.70-16.46L583.70-16.46Q583.70-12.41 585.51-10.87L585.51-10.87L585.51-10.87Q587.31-9.33 590.66-9.33L590.66-9.33L590.66-9.33Q594.00-9.33 597.56-10.87L597.56-10.87L597.56-10.87Q601.13-12.41 602.62-14.87ZM584.67-24.46L584.67-24.46L584.67-24.46Q590.92-24.46 594.53-28.34L594.53-28.34L594.53-28.34Q598.14-32.03 598.14-37.93L598.14-37.93L598.14-37.93Q598.14-39.95 597.39-41.05L597.39-41.05L597.39-41.05Q596.64-42.15 595.14-42.15L595.14-42.15L595.14-42.15Q593.65-42.15 592.37-41.58L592.37-41.58L592.37-41.58Q591.10-41.01 589.78-39.07L589.78-39.07L589.78-39.07Q586.52-34.67 584.67-24.46ZM641.34-24.73L641.34-24.73L641.34-24.73Q644.51-30.36 644.51-36.08L644.51-36.08L644.51-36.08Q644.51-39.86 641.78-39.86L641.78-39.86L641.78-39.86Q639.67-39.86 637.47-36.26L637.47-36.26L637.47-36.26Q635.18-32.65 634.48-27.98L634.48-27.98L629.90 0L611.69 1.76L620.66-44.88L635.18-46.64L633.60-37.75L633.60-37.75Q637.91-46.64 647.59-46.64L647.59-46.64L647.59-46.64Q652.70-46.64 655.47-44L655.47-44L655.47-44Q658.24-41.36 658.24-35.95L658.24-35.95L658.24-35.95Q658.24-30.54 654.68-27.10L654.68-27.10L654.68-27.10Q651.11-23.67 645.04-23.67L645.04-23.67L645.04-23.67Q642.40-23.67 641.34-24.73Z" fill="#345ba9"></path></g></g><style>text {
  font-size: 64px;
  font-family: Arial Black;
  dominant-baseline: central;
  text-anchor: middle;
}</style></svg>